<mxfile host="app.diagrams.net" modified="2024-01-03T10:36:52.269Z" agent="Mozilla/5.0 (Windows NT 10.0; Win64; x64) AppleWebKit/537.36 (KHTML, like Gecko) Chrome/120.0.0.0 Safari/537.36" etag="l8b2zosPaePoykELlV8Z" version="22.1.16" type="device">
  <diagram name="Page-1" id="6BvhTTgm0wVMXT1V30_M">
    <mxGraphModel dx="1434" dy="746" grid="1" gridSize="10" guides="1" tooltips="1" connect="1" arrows="1" fold="1" page="1" pageScale="1" pageWidth="850" pageHeight="1100" math="0" shadow="0">
      <root>
        <mxCell id="0" />
        <mxCell id="1" parent="0" />
        <mxCell id="KVpPBKVVQ-5H7KppRgos-7" style="edgeStyle=orthogonalEdgeStyle;rounded=0;orthogonalLoop=1;jettySize=auto;html=1;exitX=0.25;exitY=0;exitDx=0;exitDy=0;entryX=0.25;entryY=1;entryDx=0;entryDy=0;" parent="1" source="KVpPBKVVQ-5H7KppRgos-1" target="KVpPBKVVQ-5H7KppRgos-3" edge="1">
          <mxGeometry relative="1" as="geometry" />
        </mxCell>
        <mxCell id="KVpPBKVVQ-5H7KppRgos-1" value="" style="rounded=0;whiteSpace=wrap;html=1;rotation=90;" parent="1" vertex="1">
          <mxGeometry y="280" width="250" height="60" as="geometry" />
        </mxCell>
        <mxCell id="KVpPBKVVQ-5H7KppRgos-2" value="&lt;font style=&quot;font-size: 20px;&quot;&gt;Match Room&lt;br&gt;&lt;/font&gt;" style="text;html=1;strokeColor=none;fillColor=none;align=center;verticalAlign=middle;whiteSpace=wrap;rounded=0;rotation=-90;" parent="1" vertex="1">
          <mxGeometry x="45" y="284" width="160" height="30" as="geometry" />
        </mxCell>
        <mxCell id="KVpPBKVVQ-5H7KppRgos-9" style="edgeStyle=orthogonalEdgeStyle;rounded=0;orthogonalLoop=1;jettySize=auto;html=1;exitX=0.75;exitY=1;exitDx=0;exitDy=0;entryX=0.75;entryY=0;entryDx=0;entryDy=0;" parent="1" source="KVpPBKVVQ-5H7KppRgos-3" target="KVpPBKVVQ-5H7KppRgos-1" edge="1">
          <mxGeometry relative="1" as="geometry" />
        </mxCell>
        <mxCell id="KVpPBKVVQ-5H7KppRgos-11" style="edgeStyle=orthogonalEdgeStyle;rounded=0;orthogonalLoop=1;jettySize=auto;html=1;exitX=0.25;exitY=0;exitDx=0;exitDy=0;entryX=0.25;entryY=1;entryDx=0;entryDy=0;" parent="1" source="KVpPBKVVQ-5H7KppRgos-3" target="KVpPBKVVQ-5H7KppRgos-5" edge="1">
          <mxGeometry relative="1" as="geometry" />
        </mxCell>
        <mxCell id="KVpPBKVVQ-5H7KppRgos-18" style="edgeStyle=orthogonalEdgeStyle;rounded=0;orthogonalLoop=1;jettySize=auto;html=1;exitX=0.75;exitY=0;exitDx=0;exitDy=0;entryX=0.75;entryY=1;entryDx=0;entryDy=0;" parent="1" source="KVpPBKVVQ-5H7KppRgos-3" target="KVpPBKVVQ-5H7KppRgos-5" edge="1">
          <mxGeometry relative="1" as="geometry" />
        </mxCell>
        <mxCell id="KVpPBKVVQ-5H7KppRgos-3" value="" style="rounded=0;whiteSpace=wrap;html=1;rotation=90;" parent="1" vertex="1">
          <mxGeometry x="240" y="280" width="250" height="60" as="geometry" />
        </mxCell>
        <mxCell id="KVpPBKVVQ-5H7KppRgos-4" value="&lt;font style=&quot;font-size: 20px;&quot;&gt;B2M&lt;/font&gt;" style="text;html=1;strokeColor=none;fillColor=none;align=center;verticalAlign=middle;whiteSpace=wrap;rounded=0;rotation=-90;" parent="1" vertex="1">
          <mxGeometry x="285" y="294" width="160" height="30" as="geometry" />
        </mxCell>
        <mxCell id="KVpPBKVVQ-5H7KppRgos-5" value="" style="rounded=0;whiteSpace=wrap;html=1;rotation=90;" parent="1" vertex="1">
          <mxGeometry x="460" y="280" width="250" height="60" as="geometry" />
        </mxCell>
        <mxCell id="KVpPBKVVQ-5H7KppRgos-6" value="&lt;font style=&quot;font-size: 20px;&quot;&gt;Operator&lt;br&gt;&lt;/font&gt;" style="text;html=1;strokeColor=none;fillColor=none;align=center;verticalAlign=middle;whiteSpace=wrap;rounded=0;rotation=-90;" parent="1" vertex="1">
          <mxGeometry x="505" y="289" width="160" height="30" as="geometry" />
        </mxCell>
        <mxCell id="KVpPBKVVQ-5H7KppRgos-8" value="&lt;font style=&quot;font-size: 13px;&quot;&gt;Subscription/On-demand Api&lt;/font&gt;" style="text;html=1;strokeColor=none;fillColor=none;align=center;verticalAlign=middle;whiteSpace=wrap;rounded=0;" parent="1" vertex="1">
          <mxGeometry x="150" y="220" width="185" height="30" as="geometry" />
        </mxCell>
        <mxCell id="KVpPBKVVQ-5H7KppRgos-10" value="&lt;font style=&quot;font-size: 16px;&quot;&gt;Redirect Api&lt;/font&gt;" style="text;html=1;strokeColor=none;fillColor=none;align=center;verticalAlign=middle;whiteSpace=wrap;rounded=0;" parent="1" vertex="1">
          <mxGeometry x="150" y="370" width="185" height="30" as="geometry" />
        </mxCell>
        <mxCell id="KVpPBKVVQ-5H7KppRgos-12" value="&lt;font style=&quot;font-size: 16px;&quot;&gt;OTP&lt;/font&gt;" style="text;html=1;strokeColor=none;fillColor=none;align=center;verticalAlign=middle;whiteSpace=wrap;rounded=0;" parent="1" vertex="1">
          <mxGeometry x="380" y="219" width="185" height="30" as="geometry" />
        </mxCell>
        <mxCell id="KVpPBKVVQ-5H7KppRgos-14" value="" style="endArrow=classic;html=1;rounded=0;jumpSize=6;entryX=0.416;entryY=-0.05;entryDx=0;entryDy=0;entryPerimeter=0;" parent="1" edge="1">
          <mxGeometry width="50" height="50" relative="1" as="geometry">
            <mxPoint x="552" y="282" as="sourcePoint" />
            <mxPoint x="396" y="282" as="targetPoint" />
          </mxGeometry>
        </mxCell>
        <mxCell id="KVpPBKVVQ-5H7KppRgos-15" value="&lt;font style=&quot;font-size: 16px;&quot;&gt;OTP Result&lt;/font&gt;" style="text;html=1;strokeColor=none;fillColor=none;align=center;verticalAlign=middle;whiteSpace=wrap;rounded=0;" parent="1" vertex="1">
          <mxGeometry x="383" y="255" width="185" height="30" as="geometry" />
        </mxCell>
        <mxCell id="KVpPBKVVQ-5H7KppRgos-19" value="&lt;font style=&quot;font-size: 16px;&quot;&gt;Charging&lt;/font&gt;" style="text;html=1;strokeColor=none;fillColor=none;align=center;verticalAlign=middle;whiteSpace=wrap;rounded=0;" parent="1" vertex="1">
          <mxGeometry x="380" y="340" width="185" height="30" as="geometry" />
        </mxCell>
        <mxCell id="KVpPBKVVQ-5H7KppRgos-22" value="" style="endArrow=classic;html=1;rounded=0;entryX=0.908;entryY=0.983;entryDx=0;entryDy=0;entryPerimeter=0;" parent="1" target="KVpPBKVVQ-5H7KppRgos-5" edge="1">
          <mxGeometry width="50" height="50" relative="1" as="geometry">
            <mxPoint x="395" y="412" as="sourcePoint" />
            <mxPoint x="445" y="362" as="targetPoint" />
          </mxGeometry>
        </mxCell>
        <mxCell id="KVpPBKVVQ-5H7KppRgos-23" value="&lt;font style=&quot;font-size: 16px;&quot;&gt;Message&lt;/font&gt;" style="text;html=1;strokeColor=none;fillColor=none;align=center;verticalAlign=middle;whiteSpace=wrap;rounded=0;" parent="1" vertex="1">
          <mxGeometry x="380" y="380" width="185" height="30" as="geometry" />
        </mxCell>
      </root>
    </mxGraphModel>
  </diagram>
</mxfile>
